<?xml version="1.0" encoding="UTF-8" standalone="no"?>
<svg
   viewBox="0 0 1920 1920"
   version="1.1"
   id="svg2"
   sodipodi:docname="icon.svg"
   inkscape:version="1.4 (e7c3feb100, 2024-10-09)"
   inkscape:export-filename="../../icon.svg"
   inkscape:export-xdpi="96"
   inkscape:export-ydpi="96"
   xmlns:inkscape="http://www.inkscape.org/namespaces/inkscape"
   xmlns:sodipodi="http://sodipodi.sourceforge.net/DTD/sodipodi-0.dtd"
   xmlns="http://www.w3.org/2000/svg"
   xmlns:svg="http://www.w3.org/2000/svg">
  <defs
     id="defs2">
    <rect
       x="178.09263"
       y="1354.3323"
       width="1992.1525"
       height="1735.3677"
       id="rect12" />
    <rect
       x="115.96729"
       y="596.40322"
       width="1876.1851"
       height="1292.207"
       id="rect11" />
    <rect
       x="356.18525"
       y="1325.3405"
       width="1097.5476"
       height="418.31059"
       id="rect10" />
    <rect
       x="298.20161"
       y="1445.4495"
       width="778.63753"
       height="323.05174"
       id="rect9" />
  </defs>
  <sodipodi:namedview
     id="namedview2"
     pagecolor="#ffffff"
     bordercolor="#000000"
     borderopacity="0.25"
     inkscape:showpageshadow="2"
     inkscape:pageopacity="0.0"
     inkscape:pagecheckerboard="0"
     inkscape:deskcolor="#d1d1d1"
     showguides="true"
     inkscape:zoom="0.24144739"
     inkscape:cx="863.54216"
     inkscape:cy="981.58029"
     inkscape:window-width="1366"
     inkscape:window-height="699"
     inkscape:window-x="0"
     inkscape:window-y="0"
     inkscape:window-maximized="1"
     inkscape:current-layer="svg2" />
  <style
     id="style1">
        .st0{fill:#fff}.st1{fill:none;stroke:#231f20;stroke-width:50;stroke-linecap:round;stroke-linejoin:round;stroke-miterlimit:10}
    </style>
  <rect
     style="fill:#d49bcb;fill-opacity:1"
     id="rect13"
     width="1814.0598"
     height="1847.1932"
     x="52.970093"
     y="36.403381"
     rx="32"
     ry="32"
     inkscape:export-filename="../../icon.svg"
     inkscape:export-xdpi="96"
     inkscape:export-ydpi="96" />
  <g
     id="text11"
     style="font-weight:bold;font-size:240px;line-height:0.8;font-family:'Cascadia Code';-inkscape-font-specification:'Cascadia Code Bold';text-align:center;white-space:pre;shape-padding:12.4251;fill:#5764ff"
     inkscape:label="text11"
     transform="translate(-220.73047,60.72367)"
     aria-label="Easter&#10;Bunnys">
    <path
       d="m 769.05078,1534.3545 h 114.14063 v -28.4766 h -83.20313 v -40.5469 h 62.10938 v -28.5937 h -62.10938 v -40.3125 h 83.20313 v -28.4766 H 769.05078 Z m 217.03125,1.1718 44.53127,-1.1718 v -25.7813 l -17.2266,-2.5781 v -45.9375 c 0,-32.8125 -21.56248,-50.1563 -66.56248,-50.7422 l -27.07031,-0.3516 -2.34375,28.8282 31.75781,0.8203 c 22.38281,0.5859 33.75,6.4453 33.75,19.6875 v 0.3515 c -7.5,-1.6406 -15.11719,-2.4609 -25.42969,-2.4609 -35.27344,0 -55.3125,15.3516 -55.3125,43.125 0,23.9062 15.35156,37.3828 41.83594,37.3828 21.5625,0 35.03906,-9.4922 37.26562,-28.5937 h 2.8125 z m -3.16406,-50.7422 c -0.46875,12.4219 -10.89844,25.1954 -31.05469,25.1954 -11.36719,0 -17.46094,-4.5704 -17.46094,-13.0079 0,-9.2578 8.55469,-14.0625 24.60938,-14.0625 8.20312,0 14.88281,0 23.90625,1.875 z m 111.32813,51.9141 c 42.8906,0 63.6328,-12.7734 63.6328,-39.1406 0,-17.5781 -10.5469,-28.2422 -31.875,-34.1016 l -34.8047,-9.6094 c -4.9219,-1.4062 -7.0312,-3.164 -7.0312,-7.1484 0,-6.2109 10.4297,-8.7891 34.9218,-8.7891 7.3829,0 17.8125,0.4688 32.1094,1.6407 l 3.3985,-29.4141 c -12.7735,-1.5234 -24.2579,-2.3437 -34.8047,-2.3437 -45.8203,0 -68.086,12.8906 -68.086,39.6093 0,16.7578 8.3203,26.25 24.961,31.0547 l 40.4297,11.7188 c 5.1562,1.5234 7.3828,3.5156 7.3828,7.2656 0,6.4453 -9.0235,9.1406 -30.2344,9.1406 -7.6172,0 -20.9766,-1.289 -40.6641,-3.75 l -3.75,30.3516 c 11.0157,2.3437 25.4297,3.5156 44.4141,3.5156 z m 176.6016,0 c 11.1328,0 20.3906,-0.9375 30.7031,-2.8125 l -2.8125,-29.6484 c -10.5469,1.4062 -18.3985,2.3437 -25.5469,2.3437 -22.3828,0 -31.4062,-8.0859 -31.4062,-27.0703 v -40.1953 h 55.0781 v -29.1797 h -55.0781 v -37.5 h -31.6407 v 37.5 h -29.7656 v 29.1797 h 29.7656 v 43.2422 c 0,37.8515 17.8125,54.1406 60.7032,54.1406 z m 124.1015,0 c 10.0781,0 23.3203,-0.4687 39.2578,-3.2812 l -3.0468,-30 c -11.3672,2.1093 -22.1485,3.2812 -33.3985,3.2812 -19.4531,0 -32.2265,-7.5 -37.0312,-21.9141 h 78.8672 c 0.4687,-5.039 0.7031,-10.1953 0.7031,-16.0546 0,-39.6094 -20.2735,-60.9375 -55.6641,-60.9375 -36.2109,0 -57.0703,23.6718 -57.0703,64.2187 0,41.7188 24.375,64.6875 67.3828,64.6875 z m -35.7422,-73.9453 c 2.2266,-16.6406 11.3672,-25.8984 25.6641,-25.8984 15.2344,0 24.2578,9.1406 24.2578,25.8984 z m 161.4844,18.1641 c 0,-27.6563 7.6172,-43.2422 23.0859,-43.2422 11.836,0 16.9922,5.9765 16.9922,20.625 h 31.6407 c 0,-32.5782 -13.0079,-50.5078 -36.5625,-50.5078 -20.0391,0 -30.4688,9.9609 -31.7579,30.3515 h -4.4531 l -3.6328,-28.0078 h -48.5156 v 27.1875 h 21.5625 v 69.8438 h -26.25 v 27.1875 h 86.9531 v -27.1875 h -29.0625 z"
       id="path1" />
    <path
       d="m 769.05078,1726.3545 h 65.74219 c 33.39844,0 52.38281,-16.6407 52.38281,-45.7032 0,-25.664 -16.40625,-40.3125 -45.23437,-40.3125 h -5.39063 v -3.8672 c 24.84375,-1.0546 38.90625,-13.7109 38.90625,-35.2734 0,-26.3672 -19.92187,-41.25 -54.96094,-41.25 h -51.44531 z m 30.9375,-28.4766 v -45.1172 h 26.36719 c 18.04687,0 28.35937,8.2031 28.35937,22.3828 0,14.4141 -9.84375,22.7344 -26.71875,22.7344 z m 0,-73.7109 v -35.7422 h 19.33594 c 15.70312,0 23.67187,5.7422 23.67187,16.9922 0,12.4218 -7.5,18.75 -22.03125,18.75 z m 145.19531,104.5312 c 16.40625,0 28.24219,-9.375 32.10938,-26.25 h 3.63281 l 1.75781,25.0781 46.75781,-1.1718 v -25.7813 l -17.1094,-2.5781 v -95.8594 h -31.75778 v 58.9453 c 0,27.0703 -7.61719,37.5 -22.5,37.5 -11.48438,0 -18.28125,-7.9687 -18.28125,-22.2656 v -74.1797 h -31.75781 v 82.0313 c 0,28.3593 13.47656,44.5312 37.14843,44.5312 z m 179.53121,-2.3437 h 31.7579 v -80.8594 c 0,-29.0625 -15,-45.7031 -41.25,-45.7031 -18.5157,0 -26.836,8.2031 -29.1797,24.8437 h -3.5157 l -2.9296,-22.5 h -28.3594 v 124.2188 h 31.7578 v -61.9922 c 0,-23.086 8.0859,-34.4532 23.9062,-34.4532 11.3672,0 17.8125,8.4375 17.8125,23.4375 z m 140.625,0 h 31.7579 v -80.8594 c 0,-29.0625 -15,-45.7031 -41.25,-45.7031 -18.5157,0 -26.836,8.2031 -29.1797,24.8437 h -3.5157 l -2.9296,-22.5 h -28.3594 v 124.2188 h 31.7578 v -61.9922 c 0,-23.086 8.0859,-34.4532 23.9062,-34.4532 11.3672,0 17.8125,8.4375 17.8125,23.4375 z m 56.25,56.25 23.086,-2.3438 c 34.8047,-3.5156 53.6719,-20.1562 67.8515,-64.9219 l 34.9219,-113.2031 h -33.6328 l -27.1875,97.2656 h -2.9297 l -30.8203,-97.2656 h -33.6328 l 41.7187,124.2188 h 16.7579 c -7.8516,16.9921 -18.6329,24.4921 -35.8594,26.3671 l -21.4453,2.3438 z m 194.5313,-53.9063 c 42.8906,0 63.6328,-12.7734 63.6328,-39.1406 0,-17.5781 -10.5469,-28.2422 -31.875,-34.1016 l -34.8047,-9.6094 c -4.9219,-1.4062 -7.0312,-3.164 -7.0312,-7.1484 0,-6.2109 10.4297,-8.7891 34.9218,-8.7891 7.3829,0 17.8125,0.4688 32.1094,1.6407 l 3.3985,-29.4141 c -12.7735,-1.5234 -24.2579,-2.3437 -34.8047,-2.3437 -45.8203,0 -68.086,12.8906 -68.086,39.6093 0,16.7578 8.3203,26.25 24.961,31.0547 l 40.4297,11.7188 c 5.1562,1.5234 7.3828,3.5156 7.3828,7.2656 0,6.4453 -9.0235,9.1406 -30.2344,9.1406 -7.6172,0 -20.9766,-1.289 -40.6641,-3.75 l -3.75,30.3516 c 11.0157,2.3437 25.4297,3.5156 44.4141,3.5156 z"
       id="path3" />
  </g>
  <g
     id="g11"
     transform="translate(19.96966,74.05672)">
    <path
       class="st1"
       d="m 1410.1247,821.494 c 0,259.5969 -210.4136,470.0944 -470.09434,470.0944 -259.68077,0 -470.09438,-210.4975 -470.09438,-470.0944 0,-259.59684 210.41361,-777.195849 470.09438,-777.195849 259.68074,0 470.09434,517.599009 470.09434,777.195849 z"
       id="STROKES"
       style="fill:#d140e5;fill-opacity:1" />
    <ellipse
       style="fill:#406ce5;fill-opacity:1"
       id="path2"
       cx="746.62317"
       cy="407.33963"
       rx="61.711136"
       ry="74.053368" />
    <ellipse
       style="fill:#406ce5;fill-opacity:1"
       id="ellipse2"
       cx="1165.6881"
       cy="484.85452"
       rx="61.711136"
       ry="74.053368" />
    <ellipse
       style="fill:#406ce5;fill-opacity:1"
       id="ellipse3"
       cx="640.04016"
       cy="763.42365"
       rx="61.711136"
       ry="74.053368" />
    <ellipse
       style="fill:#406ce5;fill-opacity:1"
       id="ellipse4"
       cx="1223.8242"
       cy="770.69067"
       rx="61.711136"
       ry="74.053368" />
    <ellipse
       style="fill:#406ce5;fill-opacity:1"
       id="ellipse5"
       cx="787.80298"
       cy="1049.2598"
       rx="61.711136"
       ry="74.053368" />
    <ellipse
       style="fill:#406ce5;fill-opacity:1"
       id="ellipse6"
       cx="1097.8625"
       cy="1015.3471"
       rx="61.711136"
       ry="74.053368" />
    <ellipse
       style="fill:#406ce5;fill-opacity:1"
       id="ellipse7"
       cx="940.4104"
       cy="685.90881"
       rx="61.711136"
       ry="74.053368" />
    <ellipse
       style="fill:#406ce5;fill-opacity:1"
       id="ellipse8"
       cx="993.70184"
       cy="274.11093"
       rx="61.711136"
       ry="74.053368" />
  </g>
</svg>
